{
  "source": "C:\\Users\\Peter\\Desktop\\stuff\\MIUN\\quantitative_research\\video_compression\\videos\\BVI-HD\\BVI-HD_CDVL_videos\\ORIG\\RockWave_1920x1080_30fps.mp4",
  "output": "C:\\Users\\Peter\\Desktop\\stuff\\MIUN\\quantitative_research\\video_compression\\compressed_videos\\BVI-HD\\h264\\3\\RockWave_1920x1080_30fps_h264.mp4",
  "codec": "h264",
  "ok": "Input #0, mov,mp4,m4a,3gp,3g2,mj2, from 'C:\\Users\\Peter\\Desktop\\stuff\\MIUN\\quantitative_research\\video_compression\\videos\\BVI-HD\\BVI-HD_CDVL_videos\\ORIG\\RockWave_1920x1080_30fps.mp4':\n  Metadata:\n    major_brand     : isom\n    minor_version   : 512\n    compatible_brands: isomiso2avc1mp41\n    encoder         : Lavf54.28.101\n  Duration: 00:00:05.00, start: 0.000000, bitrate: 303557 kb/s\n  Stream #0:0[0x1](und): Video: h264 (High 4:4:4 Predictive) (avc1 / 0x31637661), yuv420p(progressive), 1920x1080, 303553 kb/s, 30 fps, 30 tbr, 30 tbn (default)\n    Metadata:\n      handler_name    : VideoHandler\n      vendor_id       : [0][0][0][0]\n[out#0/mp4 @ 000001e0ceaf9a40] Codec AVOption b:a (set bitrate (in bits/s)) has not been used for any stream. The most likely reason is either wrong type (e.g. a video option with no video streams) or that it is a private option of some decoder which was not actually used for any stream.\nStream mapping:\n  Stream #0:0 -> #0:0 (h264 (native) -> h264 (libx264))\nPress [q] to stop, [?] for help\n[libx264 @ 000001e0d0aa0a40] using cpu capabilities: MMX2 SSE2Fast SSSE3 SSE4.2 AVX FMA3 BMI2 AVX2\n[libx264 @ 000001e0d0aa0a40] profile High, level 5.0, 4:2:0, 8-bit\n[libx264 @ 000001e0d0aa0a40] 264 - core 165 r3222 b35605a - H.264/MPEG-4 AVC codec - Copyleft 2003-2025 - http://www.videolan.org/x264.html - options: cabac=1 ref=5 deblock=1:0:0 analyse=0x3:0x113 me=hex subme=8 psy=1 psy_rd=1.00:0.00 mixed_ref=1 me_range=16 chroma_me=1 trellis=2 8x8dct=1 cqm=0 deadzone=21,11 fast_pskip=1 chroma_qp_offset=-2 threads=18 lookahead_threads=3 sliced_threads=0 nr=0 decimate=1 interlaced=0 bluray_compat=0 constrained_intra=0 bframes=3 b_pyramid=2 b_adapt=1 b_bias=0 direct=3 weightb=1 open_gop=0 weightp=2 keyint=250 keyint_min=25 scenecut=40 intra_refresh=0 rc_lookahead=50 rc=cbr mbtree=1 bitrate=3000 ratetol=1.0 qcomp=0.60 qpmin=0 qpmax=69 qpstep=4 vbv_maxrate=3000 vbv_bufsize=3000 nal_hrd=none filler=0 ip_ratio=1.40 aq=1:1.00\nOutput #0, mp4, to 'C:\\Users\\Peter\\Desktop\\stuff\\MIUN\\quantitative_research\\video_compression\\compressed_videos\\BVI-HD\\h264\\3\\RockWave_1920x1080_30fps_h264.mp4':\n  Metadata:\n    major_brand     : isom\n    minor_version   : 512\n    compatible_brands: isomiso2avc1mp41\n    encoder         : Lavf62.3.100\n  Stream #0:0(und): Video: h264 (avc1 / 0x31637661), yuv420p(tv, progressive), 1920x1080, q=2-31, 3000 kb/s, 30 fps, 15360 tbn (default)\n    Metadata:\n      encoder         : Lavc62.11.100 libx264\n      handler_name    : VideoHandler\n      vendor_id       : [0][0][0][0]\n    Side data:\n      cpb: bitrate max/min/avg: 3000000/0/3000000 buffer size: 3000000 vbv_delay: N/A\nframe=    0 fps=0.0 q=0.0 size=       0KiB time=N/A bitrate=N/A speed=N/A elapsed=0:00:01.16    \nframe=    0 fps=0.0 q=0.0 size=       0KiB time=N/A bitrate=N/A speed=N/A elapsed=0:00:01.82    \nframe=    8 fps=3.2 q=46.0 size=       0KiB time=00:00:00.06 bitrate=   5.8kbits/s speed=0.0264x elapsed=0:00:02.52    \nframe=   28 fps=8.7 q=44.0 size=     256KiB time=00:00:00.66 bitrate=3146.3kbits/s speed=0.207x elapsed=0:00:03.22    \nframe=   41 fps= 11 q=44.0 size=     256KiB time=00:00:01.30 bitrate=1613.5kbits/s speed=0.337x elapsed=0:00:03.85    \nframe=   65 fps= 15 q=44.0 size=     512KiB time=00:00:01.96 bitrate=2132.9kbits/s speed=0.442x elapsed=0:00:04.44    \nframe=   89 fps= 18 q=44.0 size=     768KiB time=00:00:02.90 bitrate=2169.6kbits/s speed=0.576x elapsed=0:00:05.03    \nframe=  113 fps= 20 q=43.0 size=    1024KiB time=00:00:03.56 bitrate=2352.1kbits/s speed=0.641x elapsed=0:00:05.56    \nframe=  141 fps= 23 q=-1.0 size=    1536KiB time=00:00:04.50 bitrate=2796.3kbits/s speed=0.734x elapsed=0:00:06.13    \n[mp4 @ 000001e0ceb01400] Starting second pass: moving the moov atom to the beginning of the file\n[out#0/mp4 @ 000001e0ceaf9a40] video:1720KiB audio:0KiB subtitle:0KiB other streams:0KiB global headers:0KiB muxing overhead: 0.151666%\nframe=  150 fps= 24 q=-1.0 Lsize=    1722KiB time=00:00:04.93 bitrate=2860.2kbits/s speed=0.79x elapsed=0:00:06.24    \n[libx264 @ 000001e0d0aa0a40] frame I:2     Avg QP:40.87  size: 47182\n[libx264 @ 000001e0d0aa0a40] frame P:38    Avg QP:44.47  size: 19899\n[libx264 @ 000001e0d0aa0a40] frame B:110   Avg QP:46.27  size:  8271\n[libx264 @ 000001e0d0aa0a40] consecutive B-frames:  2.0%  0.0%  2.0% 96.0%\n[libx264 @ 000001e0d0aa0a40] mb I  I16..4: 27.7% 66.5%  5.9%\n[libx264 @ 000001e0d0aa0a40] mb P  I16..4:  4.4%  7.5%  0.2%  P16..4: 36.9%  5.5%  4.7%  0.0%  0.0%    skip:40.8%\n[libx264 @ 000001e0d0aa0a40] mb B  I16..4:  0.0%  0.3%  0.0%  B16..8: 34.1%  2.6%  0.3%  direct: 2.5%  skip:60.2%  L0:44.0% L1:54.1% BI: 1.9%\n[libx264 @ 000001e0d0aa0a40] 8x8 transform intra:64.7% inter:77.3%\n[libx264 @ 000001e0d0aa0a40] direct mvs  spatial:90.9% temporal:9.1%\n[libx264 @ 000001e0d0aa0a40] coded y,uvDC,uvAC intra: 38.1% 11.4% 0.0% inter: 9.5% 0.5% 0.0%\n[libx264 @ 000001e0d0aa0a40] i16 v,h,dc,p: 31% 30% 15% 23%\n[libx264 @ 000001e0d0aa0a40] i8 v,h,dc,ddl,ddr,vr,hd,vl,hu:  4%  4% 18% 12% 15% 10% 15%  9% 13%\n[libx264 @ 000001e0d0aa0a40] i4 v,h,dc,ddl,ddr,vr,hd,vl,hu:  3%  5% 10% 11% 14% 10% 16% 10% 22%\n[libx264 @ 000001e0d0aa0a40] i8c dc,h,v,p: 95%  5%  1%  0%\n[libx264 @ 000001e0d0aa0a40] Weighted P-Frames: Y:7.9% UV:0.0%\n[libx264 @ 000001e0d0aa0a40] ref P L0: 50.2%  7.0% 21.8% 10.0% 10.3%  0.8%\n[libx264 @ 000001e0d0aa0a40] ref B L0: 81.7% 11.8%  4.5%  2.0%\n[libx264 @ 000001e0d0aa0a40] ref B L1: 94.8%  5.2%\n[libx264 @ 000001e0d0aa0a40] kb/s:2816.55\n",
  "seconds": 6.582069158554077,
  "probe_out": {}
}